<svg width="73" height="71" viewBox="0 0 73 71" fill="none" xmlns="http://www.w3.org/2000/svg">
<path d="M3.04199 3.03465H69.9592V67.9653H3.04199V3.03465Z" fill="url(#paint0_radial)"/>
<path d="M3.04215 3.03465H69.9593V67.9654H3.04215V3.03465ZM0 71H73V0H0V71ZM51.6479 34.2255C53.199 34.2255 53.7457 34.2255 53.8977 34.1642C53.8977 33.9528 53.9591 33.8011 53.9591 33.6495C53.9591 32.0104 53.1683 28.9757 50.0048 28.9757C47.081 28.9757 45.8384 31.5248 45.5344 34.2255H51.6479ZM45.473 38.383C45.5344 42.4778 47.4801 45.2368 52.104 45.2368C53.8992 45.2368 55.4502 44.9948 57.0627 44.2963C57.2747 44.2058 57.4267 44.235 57.4267 44.5092V48.3007C57.438 48.4202 57.4155 48.5406 57.3617 48.648C57.308 48.7555 57.2252 48.8458 57.1226 48.9087C55.5146 49.6977 53.503 50.0608 51.0091 50.0608C42.979 50.0608 39.9676 44.1446 39.9676 37.5605C39.9676 30.4004 43.6792 24.5441 50.2182 24.5441C56.8492 24.5441 59.1605 30.0957 59.1605 34.6177C59.1605 36.076 59.0698 37.2572 58.9178 37.8259C58.9057 37.9266 58.8601 38.0202 58.7883 38.0919C58.7164 38.1636 58.6225 38.2091 58.5216 38.2211C57.9135 38.3115 56.1198 38.4326 53.4431 38.4326H45.473V38.3728V38.383ZM29.1702 35.29C28.3179 31.9229 26.2464 24.5791 25.4892 21.0296H25.4278C24.7904 24.5791 23.1166 30.5871 21.8696 35.29H29.1702ZM20.6226 40.2058L18.2193 49.2748C18.1594 49.5183 18.0731 49.6087 17.7632 49.6087H13.2928C12.9873 49.6087 12.9273 49.5183 12.9873 49.1537L21.6269 19.0245C21.7731 18.4777 21.8696 18.0533 21.931 16.5367C21.931 16.3238 22.0216 16.2334 22.1737 16.2334H28.5606C28.774 16.2334 28.8646 16.2932 28.926 16.5367L38.5934 49.215C38.6533 49.4571 38.5934 49.6087 38.3493 49.6087H33.3307C33.088 49.6087 32.936 49.5183 32.8746 49.3054L30.3806 40.2029L20.6226 40.2058Z" fill="#D8A1FF"/>
<defs>
<radialGradient id="paint0_radial" cx="0" cy="0" r="1" gradientUnits="userSpaceOnUse" gradientTransform="translate(25.5141 17.4841) scale(51.0528 49.3066)">
<stop stop-color="#442F55" stop-opacity="0.98"/>
<stop offset="1" stop-color="#12002C"/>
</radialGradient>
</defs>
</svg>
