<svg width="68" height="68" viewBox="0 0 68 68" fill="none" xmlns="http://www.w3.org/2000/svg">
<path d="M2.82861 4.6104H65.0758V65.1712H2.82861V4.6104Z" fill="url(#paint0_radial)"/>
<path d="M2.8288 4.6104H65.076V65.1712H2.8288V4.6104ZM0 68H67.9184V1.7816H0V68ZM44.4856 25.3912C44.4856 25.16 44.5672 25.0512 44.8256 25.0512H49.2728C49.504 25.0512 49.6128 25.1328 49.6128 25.3912V47.7224C49.6128 47.9536 49.5584 48.0624 49.2728 48.0624H44.88C44.5944 48.0624 44.5128 47.9264 44.5128 47.6952V25.3912H44.4856ZM44.1728 18.9584C44.1728 17.1496 45.4512 16.0752 47.056 16.0752C48.7832 16.0752 49.9392 17.2312 49.9392 18.9584C49.9392 20.8216 48.7288 21.8416 47.0016 21.8416C45.3696 21.8552 44.1728 20.8352 44.1728 18.9584ZM31.4432 34.6936C30.6544 31.552 28.7776 24.7112 28.0704 21.3928H28.016C27.4176 24.6976 25.9216 30.3008 24.7384 34.6936H31.4432ZM23.5824 39.2768L21.352 47.7632C21.2976 47.9944 21.216 48.0488 20.9304 48.0488H16.7688C16.4832 48.0488 16.4288 47.9672 16.4832 47.6272L24.5208 19.5024C24.6568 18.9992 24.752 18.5368 24.8064 17.1496C24.8064 16.9456 24.888 16.864 25.0376 16.864H30.9808C31.1848 16.864 31.2664 16.9184 31.3208 17.1496L40.324 47.6816C40.3784 47.9128 40.324 48.0488 40.0928 48.0488H35.4008C35.1696 48.0488 35.0336 47.9944 34.9792 47.7904L32.6536 39.2768H23.5824Z" fill="#FF7F18"/>
<defs>
<radialGradient id="paint0_radial" cx="0" cy="0" r="1" gradientUnits="userSpaceOnUse" gradientTransform="translate(23.3505 18.1934) scale(47.3099 45.8046)">
<stop stop-color="#423325" stop-opacity="0.98"/>
<stop offset="1" stop-color="#1C0A00"/>
</radialGradient>
</defs>
</svg>
