<svg width="70" height="70" viewBox="0 0 70 70" fill="none" xmlns="http://www.w3.org/2000/svg">
<path d="M0 60.9742C0 65.9595 4.041 70 9.02584 70H60.9742C65.9595 70 70 65.959 70 60.9742V9.02584C70 4.04046 65.959 0 60.9742 0H9.02584C4.04046 0 0 4.041 0 9.02584V60.9742Z" fill="#563D7C"/>
<path d="M29.0275 30.9635V21.0505H37.7533C38.5844 21.0505 39.3857 21.1197 40.1574 21.2582C40.9291 21.3967 41.6117 21.6441 42.2053 22.0002C42.7989 22.3564 43.2738 22.851 43.63 23.4842C43.9861 24.1174 44.1642 24.9286 44.1642 25.918C44.1642 27.6988 43.63 28.9849 42.5615 29.7763C41.493 30.5678 40.1277 30.9635 38.4657 30.9635H29.0275ZM19.708 13.8086V56.1914H40.2465C42.146 56.1914 43.996 55.954 45.7966 55.4791C47.5972 55.0042 49.1999 54.2721 50.6047 53.2828C52.0096 52.2934 53.1275 51.0172 53.9585 49.4541C54.7896 47.8909 55.2051 46.0409 55.2051 43.9039C55.2051 41.2525 54.562 38.987 53.2759 37.1073C51.9898 35.2275 50.0408 33.9117 47.429 33.1599C49.3285 32.2497 50.763 31.0823 51.7326 29.6576C52.7021 28.233 53.1869 26.4522 53.1869 24.3153C53.1869 22.3366 52.8604 20.6745 52.2074 19.329C51.5545 17.9836 50.6344 16.9052 49.4472 16.0939C48.26 15.2827 46.8354 14.699 45.1733 14.3428C43.5112 13.9867 41.6711 13.8086 39.6529 13.8086H19.708ZM29.0275 48.9495V37.315H39.178C41.1962 37.315 42.8187 37.78 44.0455 38.71C45.2723 39.64 45.8856 41.1932 45.8856 43.3697C45.8856 44.4778 45.6977 45.3879 45.3217 46.1003C44.9458 46.8126 44.4412 47.3765 43.808 47.792C43.1749 48.2075 42.4428 48.5043 41.6117 48.6824C40.7807 48.8605 39.9101 48.9495 38.9999 48.9495H29.0275Z" fill="white"/>
</svg>
