<svg width="65" height="63" viewBox="0 0 65 63" fill="none" xmlns="http://www.w3.org/2000/svg">
<path d="M32.5003 0C14.5532 0 0 14.4413 0 32.2563C0 46.5079 9.31232 58.599 22.2257 62.8642C23.8499 63.1627 24.4462 62.1644 24.4462 61.3124C24.4462 60.5433 24.4161 58.0023 24.4021 55.307C15.3605 57.2582 13.4526 51.5012 13.4526 51.5012C11.9742 47.7728 9.84405 46.7814 9.84405 46.7814C6.8953 44.7794 10.0663 44.8206 10.0663 44.8206C13.3299 45.0481 15.0484 48.1446 15.0484 48.1446C17.9471 53.0758 22.6514 51.6502 24.506 50.826C24.7977 48.7412 25.64 47.3182 26.5694 46.5127C19.3507 45.6971 11.7622 42.9313 11.7622 30.5716C11.7622 27.0499 13.0318 24.1724 15.1108 21.9135C14.7733 21.1011 13.6609 17.8203 15.4256 13.3773C15.4256 13.3773 18.1548 12.5103 24.3655 16.6837C26.958 15.969 29.7383 15.6105 32.5003 15.5983C35.2623 15.6105 38.0447 15.969 40.642 16.6837C46.8452 12.5103 49.5706 13.3773 49.5706 13.3773C51.3396 17.8203 50.2267 21.1011 49.8892 21.9135C51.9731 24.1724 53.2341 27.0499 53.2341 30.5716C53.2341 42.9606 45.6311 45.6885 38.394 46.4871C39.5597 47.4881 40.5984 49.4511 40.5984 52.4605C40.5984 56.7764 40.5608 60.25 40.5608 61.3124C40.5608 62.1708 41.1458 63.1766 42.7932 62.8599C55.6995 58.5899 65 46.5031 65 32.2563C65 14.4413 50.4489 0 32.5003 0ZM12.1724 45.9497C12.1008 46.11 11.8468 46.1581 11.6154 46.048C11.3797 45.9428 11.2473 45.7243 11.3237 45.5635C11.3936 45.3985 11.6482 45.3526 11.8834 45.4631C12.1197 45.5684 12.2542 45.789 12.1724 45.9497ZM13.7711 47.3655C13.6161 47.5081 13.3131 47.4419 13.1075 47.2165C12.8949 46.9916 12.8551 46.6909 13.0122 46.5461C13.1721 46.4035 13.4659 46.4702 13.679 46.6951C13.8916 46.9227 13.9331 47.2213 13.7711 47.3655ZM14.8678 49.1769C14.6687 49.3142 14.3431 49.1854 14.1418 48.8986C13.9426 48.6118 13.9426 48.2678 14.1461 48.13C14.3479 47.9921 14.6687 48.1161 14.8726 48.4008C15.0712 48.6924 15.0712 49.0364 14.8678 49.1769ZM16.7226 51.2747C16.5445 51.4697 16.165 51.4174 15.8873 51.1514C15.6032 50.8912 15.5241 50.5221 15.7027 50.3272C15.883 50.1317 16.2646 50.1867 16.5445 50.4506C16.8265 50.7101 16.9126 51.0819 16.7226 51.2747ZM19.1198 51.983C19.0412 52.2356 18.6758 52.3505 18.3076 52.2431C17.9401 52.1325 17.6995 51.8366 17.7738 51.5813C17.8502 51.327 18.2172 51.2074 18.588 51.3222C18.9551 51.4322 19.1962 51.726 19.1198 51.983ZM21.8479 52.2834C21.857 52.5494 21.5449 52.77 21.1584 52.7748C20.7699 52.7833 20.4556 52.5681 20.4513 52.3063C20.4513 52.0377 20.7564 51.8192 21.145 51.8128C21.5314 51.8053 21.8479 52.019 21.8479 52.2834ZM24.5279 52.1814C24.5742 52.441 24.3056 52.7075 23.9219 52.7786C23.5446 52.847 23.1953 52.6867 23.1474 52.4292C23.1006 52.1632 23.374 51.8967 23.7507 51.8278C24.135 51.7616 24.4789 51.9175 24.5279 52.1814Z" fill="#161614"/>
</svg>
