<svg width="30" height="66" viewBox="0 0 30 66" fill="none" xmlns="http://www.w3.org/2000/svg">
<path d="M23.1187 63.9884L23.7547 53.4436L25.5108 50.4608C25.5108 50.4608 21.514 52.0877 14.8227 52.0877C8.13128 52.0877 4.19507 50.4908 4.19507 50.4908L6.16311 53.7447L6.85933 63.9884C6.85933 65.0866 10.4991 65.9768 14.9891 65.9768C19.4789 65.9768 23.1187 65.0866 23.1187 63.9884Z" fill="#D34A47"/>
<path d="M21.1126 14.7455L22.4475 9.49524L29.8398 1.75529L27.8914 0.104004L20.0652 8.34899L18.5152 14.6217C17.3922 14.5839 16.2202 14.5637 15.0145 14.5637C6.772 14.5637 0.0900879 15.4984 0.0900879 16.6512C0.0900879 17.8041 6.772 18.7387 15.0145 18.7387C23.2569 18.7387 29.9387 17.8041 29.9387 16.6512C29.9387 15.8023 26.3148 15.0717 21.1126 14.7455Z" fill="#D34A47"/>
<path d="M20.3361 17.6858C20.3361 17.6858 20.047 17.7502 19.1966 17.7539C18.3459 17.7574 17.7419 17.7484 17.5013 17.5303C17.4367 17.4718 17.4013 17.3555 17.4016 17.2768C17.4023 17.127 17.5092 17.0387 17.6454 16.9834L17.7742 17.1845C17.7181 17.2037 17.6861 17.2264 17.686 17.2507C17.6856 17.3645 18.5558 17.4424 19.2214 17.434C19.8872 17.4258 20.6915 17.3713 20.6922 17.2591C20.6922 17.2252 20.6314 17.1932 20.5256 17.168L20.6538 16.9684C20.8263 17.0217 20.9769 17.1246 20.9765 17.3028C20.9749 17.6058 20.5875 17.6518 20.3361 17.6858Z" fill="white"/>
<path d="M29.8253 1.77056C30.0112 1.55693 29.7291 1.01051 29.1953 0.550258C28.6613 0.0902408 28.0777 -0.109625 27.8915 0.104001C27.7055 0.317626 27.9877 0.86405 28.5217 1.32407C29.0555 1.7842 29.6393 1.9843 29.8253 1.77056Z" fill="#D34A47"/>
<path d="M22.7631 38.2316C22.5879 36.5543 26.4501 34.1251 25.4589 34.0473C23.3252 34.1687 22.2632 36.5355 21.1896 39.0144C20.7962 39.9229 19.4501 43.7968 18.5672 43.3199C17.6846 42.8432 19.7116 39.6576 20.2797 37.7657C19.6241 38.2441 17.22 40.1027 16.6005 38.3621C15.6044 39.2039 13.4759 39.6599 13.716 37.4487C13.1861 38.3827 11.9968 39.6867 10.5692 39.1449C8.69441 38.4334 11.6555 32.491 12.3918 32.7908C13.1282 33.0905 12.2432 34.4442 12.0114 34.9698C11.5016 36.1267 10.9128 37.581 11.3062 37.8787C11.9801 38.3888 13.8141 35.9492 13.8549 35.8956C14.1979 35.4447 15.1751 32.4946 15.9627 32.8333C16.7504 33.1721 13.9982 37.0671 15.0272 37.8401C15.2348 37.9962 16.0839 37.7439 16.6005 37.1878C16.9347 36.8281 16.8197 36.0313 17.9338 33.3876C19.0479 30.744 20.0409 27.4517 20.8049 27.7025C21.569 27.9532 20.9392 29.643 20.6651 30.2729C19.3789 33.2293 17.1546 38.1137 18.2036 37.7439C19.2525 37.3743 19.7987 37.3526 20.8259 36.1566C21.853 34.9605 21.8057 32.9904 22.4903 33.0323C23.1752 33.0743 23.0602 33.7059 22.8941 34.1869C23.568 33.4196 26.0882 31.8037 26.6966 33.4041C27.4173 35.2989 23.0909 38.0358 24.1696 37.8962C25.2214 37.7601 26.9253 36.6863 27.6528 35.7099L29.6553 17.796C29.6553 17.796 27.6402 19.4553 14.8206 19.4553C2.0009 19.4553 0.194336 17.8305 0.194336 17.8305L1.89918 34.1817C2.8041 31.6225 4.95297 26.446 8.34016 26.6198C9.88094 26.6988 11.9378 29.651 10.1759 29.7511C9.43012 29.7933 9.35441 28.2775 8.47129 28.0549C7.83402 27.8942 6.9468 28.4097 6.3734 28.9683C5.22988 30.0819 2.77047 34.4755 3.09543 36.666C3.50945 39.4586 6.96824 35.6956 7.55348 34.5784C7.96562 33.7914 8.24406 31.4597 9.14547 31.7044C10.047 31.949 9.06684 34.3553 8.4134 36.4828C7.67934 38.8718 7.29344 41.3918 6.3734 41.1019C5.45324 40.8122 6.95207 37.7282 6.89781 37.1878C6.03297 37.9818 4.43969 39.9919 2.40133 38.997L3.46012 49.151C3.46012 49.151 6.27414 51.3634 14.7511 51.3634C23.2281 51.3634 26.1463 49.1855 26.1463 49.1855L27.4611 37.4248C26.3854 38.467 22.9811 40.3178 22.7631 38.2316Z" fill="#D34A47"/>
</svg>
