<svg width="65" height="65" viewBox="0 0 65 65" fill="none" xmlns="http://www.w3.org/2000/svg">
<path d="M11.4639 55.848L6.78052 3.31448H58.2198L53.5307 55.8522L32.4876 61.6855L11.4639 55.848Z" fill="#E34E26"/>
<path d="M32.5 7.60852V57.2233L49.5159 52.5065L53.5248 7.60852H32.5Z" fill="#EF662A"/>
<path d="M16.3628 14.0523L18.0995 33.5366H40.4316L39.6822 41.8938L32.4918 43.8378L25.3149 41.8967L24.8351 36.5305H18.3676L19.2924 46.8748L32.4902 50.5403L45.7047 46.8748L47.4763 27.0942H23.9925L23.4029 20.4961H48.0405H48.0602L48.6374 14.0523H16.3628Z" fill="white"/>
<path d="M32.5001 14.0523H16.3628L18.0995 33.5367H32.5001V27.0942H23.9925L23.4029 20.4961H32.5001V14.0523Z" fill="#EBEBEB"/>
<path d="M32.5001 43.8351L32.4918 43.8378L25.315 41.8967L24.8352 36.5305H18.3677L19.2925 46.8748L32.4903 50.5403L32.5001 50.5375V43.8351Z" fill="#EBEBEB"/>
</svg>
