<svg width="207" height="47" viewBox="0 0 207 47" fill="none" xmlns="http://www.w3.org/2000/svg">
<g clip-path="url(#clip0)">
<path fill-rule="evenodd" clip-rule="evenodd" d="M197.992 3.50317L206.652 3.55086C206.652 3.55086 190.551 25.4156 189.236 27.1976C188.809 27.7746 188.16 28.397 187.832 29.1683C187 31.1077 186.146 35.3616 186.146 35.3616L178.222 35.4009C178.222 35.4009 179.455 30.967 179.404 28.6052C179.36 26.5419 178.309 24.4813 177.719 22.412C177.123 20.3176 176.314 16.2187 176.314 16.2187H184.461L185.584 20.723L197.992 3.50317Z" fill="#1A1918"/>
<path fill-rule="evenodd" clip-rule="evenodd" d="M181.593 8.11432C183.191 9.08003 184.172 14.4061 184.172 14.4061C184.172 14.4061 175.809 14.5297 171.258 14.5297H167.326L162.55 35.3616H155.247C155.247 35.3616 159.792 12.7227 160.865 8.61824C161.213 7.28969 163.247 7.51741 166.682 7.51741H172.168C175.711 7.51741 179.851 7.06436 181.593 8.11432Z" fill="#1A1918"/>
<path fill-rule="evenodd" clip-rule="evenodd" d="M147.592 18.2598C147.592 18.2598 147.82 16.9225 146.82 15.3742C145.966 14.054 145.177 13.7472 142.93 13.6769C136.584 13.477 136.708 18.1895 136.708 18.1895L147.592 18.2598ZM154.475 12.8634C155.405 16.2247 153.632 24.1236 153.632 24.1236C153.632 24.1236 144.376 23.9686 139.306 24.1236C137.73 24.1717 135.843 23.9519 135.374 24.6867C134.713 25.7168 135.615 27.3021 136.379 27.9717C137.258 28.7431 138.971 28.8305 139.587 28.9092C143.702 29.433 152.315 29.0443 152.315 29.0443L150.823 35.6652C150.823 35.6652 138.652 36.2764 132.564 34.8207C131.362 34.5338 130.236 33.954 129.474 33.1317C129.267 32.9068 129.087 32.6 128.89 32.3353C128.733 32.1239 128.275 31.4288 128.07 30.8796C126.68 27.1666 128.233 20.0529 129.755 16.2414C129.932 15.7994 130.154 15.2395 130.388 14.7634C130.68 14.1697 130.927 13.4996 131.16 13.1447C131.317 12.8999 131.511 12.7422 131.674 12.5113C131.862 12.2383 132.081 11.9736 132.284 11.7375C132.845 11.0842 133.483 10.6224 134.25 10.0485C136.786 8.14532 141.376 6.66735 146.89 7.23326C148.966 7.44707 152.101 8.19023 153.632 10.3299C154.042 10.9014 154.244 12.0356 154.475 12.8634Z" fill="#1A1918"/>
<path fill-rule="evenodd" clip-rule="evenodd" d="M120.977 7.49199L128.059 7.44986C128.059 7.44986 124.112 26.2124 122.101 35.3616H113.955C108.261 35.3616 103.191 36.0682 101.034 31.9832C98.941 28.017 100.938 21.4943 101.876 17.0632C102.539 13.9273 103.936 7.51742 103.936 7.51742L111.273 7.44986C111.273 7.44986 109.199 17.4292 108.337 22.412C108.028 24.1967 107.391 25.8774 108.056 27.1976C108.688 28.4534 109.573 28.5432 112.269 28.6052C113.124 28.6251 115.921 28.6052 115.921 28.6052L120.977 7.49199Z" fill="#1A1918"/>
<path fill-rule="evenodd" clip-rule="evenodd" d="M87.8308 21.0043C88.5723 18.3639 89.6537 15.501 89.5161 13.1221C89.3674 10.5775 87.2383 8.26057 85.8647 7.77374C81.7271 6.30968 77.8535 8.35635 76.3141 10.0255C74.3222 12.1878 73.6481 14.7129 72.943 18.1895C72.418 20.7707 71.9881 23.4957 72.943 25.5086C74.6339 29.067 79.9065 28.2901 85.5835 28.3238C86.4262 26.0606 87.1229 23.5184 87.8308 21.0043ZM97.6625 10.5886C98.4715 16.4834 95.3676 22.9894 93.2298 28.6473C95.4097 28.8444 97.3199 28.6167 97.4575 28.7797C97.6006 28.9911 95.9966 35.5333 95.4374 35.55C93.7073 35.5953 87.9743 35.6429 85.5835 35.6429C77.783 35.6429 70.4852 36.1524 66.7636 32.265C65.2523 30.6856 64.2074 27.9773 63.9544 26.0717C63.5329 22.8904 64.0611 19.3885 64.7971 16.5005C65.4629 13.8935 66.3167 11.4331 67.6062 9.18097C70.8841 3.44674 76.5866 -0.809527 86.1454 0.172872C87.9993 0.364424 90.6622 1.17792 92.3253 2.14323C92.4403 2.21119 92.8424 2.5319 92.9348 2.58833C95.1821 4.02139 97.2299 7.44151 97.6625 10.5886Z" fill="#1A1918"/>
<path fill-rule="evenodd" clip-rule="evenodd" d="M63.1486 7.52575C62.6767 9.67932 62.2048 12.1202 61.7075 14.2484H53.8423C54.4518 11.8893 54.9181 9.5442 55.5276 7.49197C58.0445 7.49197 60.3846 7.52575 63.1486 7.52575Z" fill="#1A1918"/>
<path fill-rule="evenodd" clip-rule="evenodd" d="M53.5612 16.2187H61.1453C60.1539 21.7197 58.1906 30.5927 56.6512 36.7688C55.6876 40.634 55.0443 43.4549 52.4374 45.4956C52.2042 45.6788 52.0698 45.5917 51.8759 45.7773C51.3953 46.2363 49.1734 46.7685 47.9433 46.9032C45.9431 47.1202 43.6819 46.9314 41.2241 46.8809C41.8673 44.5247 42.595 41.6955 43.168 39.5841C49.1595 40.3105 49.3114 34.6351 50.4713 29.1683C51.1427 26.0097 53.1766 17.4857 53.5612 16.2187Z" fill="#1A1918"/>
<path fill-rule="evenodd" clip-rule="evenodd" d="M35.8645 30.576L35.7019 30.998C32.932 36.4028 28.0247 39.7192 21.0248 39.8655C17.7524 39.933 14.6343 39.0917 12.5976 38.1765C8.20187 36.1974 4.50482 32.5269 2.48558 28.6052C-0.410835 22.9835 -0.933094 15.1632 5.08934 9.32208C5.18213 9.32208 4.35889 10.5886 4.45168 10.5886L4.28592 11.1291C-0.0539387 24.7456 13.3166 36.4144 26.314 35.0798C29.4376 34.7591 33.421 33.0447 35.8645 30.576Z" fill="#21609B"/>
<path fill-rule="evenodd" clip-rule="evenodd" d="M27.9991 24.9455C31.2691 24.9681 34.6846 23.4365 36.707 21.2861C34.9376 25.7876 29.8141 28.6811 22.9431 27.7607C17.1903 26.9894 11.71 21.1876 11.1453 15.3742C10.7325 11.1434 12.2041 8.61826 14.6286 5.55542C13.7859 7.15738 13.471 8.39293 13.3925 9.181C12.4713 18.333 20.6875 24.8978 27.9991 24.9455Z" fill="#21609B"/>
<path fill-rule="evenodd" clip-rule="evenodd" d="M36.379 13.5783C35.8706 14.7467 32.9437 16.9535 31.6513 17.2293C26.5334 18.3218 23.2555 15.8897 21.5388 13.1221C21.2834 12.7084 20.8116 11.5798 20.7271 11.2924C20.0613 9.02362 20.3674 5.59198 22.3537 3.81555C21.7553 5.50455 21.6681 7.46656 21.983 8.74185C22.1737 9.51323 22.7551 10.8593 23.3368 11.7061C24.3956 13.2489 25.0669 13.6236 26.4267 14.4427C27.039 14.8115 27.6961 15.1072 27.98 15.1886C29.2692 15.5686 31.9911 16.5708 36.379 13.5783Z" fill="#21609B"/>
</g>
<defs>
<clipPath id="clip0">
<rect width="207" height="47" fill="white"/>
</clipPath>
</defs>
</svg>
