<svg xmlns="http://www.w3.org/2000/svg" viewBox="0 0 36.31 36.05">
  <defs>
    <style>
      .cls-1 {
        fill: #21609b;
        fill-rule: evenodd;
      }
    </style>
  </defs>
  <title>jquery</title>
  <g id="Слой_2" data-name="Слой 2">
    <g id="Слой_1-2" data-name="Слой 1">
      <g>
        <path class="cls-1" d="M35.47,26.76l-.16.42c-2.77,5.41-7.68,8.72-14.68,8.87a20.4,20.4,0,0,1-8.43-1.69A21.82,21.82,0,0,1,2.09,24.79c-2.9-5.62-3.42-13.44,2.6-19.28.1,0-.73,1.26-.63,1.26l-.17.54c-4.34,13.62,9,25.29,22,24A17.07,17.07,0,0,0,35.47,26.76Z"/>
        <path class="cls-1" d="M27.6,21.13a12.43,12.43,0,0,0,8.71-3.66C34.54,22,29.42,24.87,22.55,24c-5.76-.78-11.24-6.58-11.8-12.39-.41-4.23,1.06-6.76,3.48-9.82A10.12,10.12,0,0,0,13,5.37C12.07,14.52,20.29,21.08,27.6,21.13Z"/>
        <path class="cls-1" d="M36,9.76c-.51,1.17-3.43,3.38-4.73,3.65a9,9,0,0,1-10.11-4.1,14.83,14.83,0,0,1-.81-1.83C19.66,5.21,20,1.78,22,0a9.31,9.31,0,0,0-.37,4.93,11,11,0,0,0,1.35,3A7.83,7.83,0,0,0,26,10.63a8,8,0,0,0,1.55.74C28.87,11.75,31.59,12.76,36,9.76Z"/>
      </g>
    </g>
  </g>
</svg>
