<svg width="65" height="65" viewBox="0 0 65 65" fill="none" xmlns="http://www.w3.org/2000/svg">
<path d="M0 0H65V65H0V0Z" fill="#F7DF1E"/>
<path d="M17.0909 54.3188L22.0652 51.3084C23.0248 53.0099 23.8978 54.4495 25.9917 54.4495C27.9989 54.4495 29.2643 53.6643 29.2643 50.6104V29.8413H35.3726V50.6967C35.3726 57.0234 31.6641 59.9031 26.2536 59.9031C21.3671 59.9031 18.5306 57.3723 17.0908 54.3182" fill="black"/>
<path d="M38.6904 53.6642L43.6641 50.7845C44.9733 52.9227 46.675 54.4933 49.6854 54.4933C52.2164 54.4933 53.8304 53.2279 53.8304 51.4826C53.8304 49.3882 52.1725 48.6464 49.3799 47.4251L47.8533 46.7702C43.4462 44.8944 40.5227 42.5383 40.5227 37.5641C40.5227 32.9827 44.0132 29.492 49.4674 29.492C53.3507 29.492 56.1431 30.8448 58.15 34.379L53.394 37.4331C52.3468 35.5571 51.2127 34.8154 49.4675 34.8154C47.6786 34.8154 46.5441 35.9498 46.5441 37.4331C46.5441 39.2657 47.6786 40.0076 50.2962 41.1421L51.8232 41.7965C57.0155 44.0219 59.9389 46.2905 59.9389 51.3953C59.9389 56.8933 55.6194 59.9036 49.8165 59.9036C44.1443 59.9036 40.4792 57.1985 38.6905 53.6642" fill="black"/>
</svg>
