<svg width="69" height="69" viewBox="0 0 69 69" fill="none" xmlns="http://www.w3.org/2000/svg">
<g clip-path="url(#clip0)">
<path d="M2.87036 4.7196H66.0054V66.1296H2.87036V4.7196Z" fill="url(#paint0_radial)"/>
<path d="M2.8704 4.7196H66.0054V66.1296H2.8704V4.7196ZM0 69H68.862V1.8492H0V69ZM46.437 29.4078C44.1738 29.4078 43.401 30.5532 43.401 31.5054C43.401 32.5404 43.9116 33.258 46.9614 34.8312C51.4602 37.0116 52.8678 39.1092 52.8678 42.1728C52.8678 46.7682 49.3626 49.2384 44.6292 49.2384C42.1314 49.2384 39.9786 48.7278 38.7504 48.0102C38.5434 47.9274 38.5158 47.7756 38.5158 47.5548V43.3182C38.5158 43.0284 38.6538 42.9456 38.8608 43.0836C40.6686 44.2566 42.7386 44.781 44.6292 44.781C46.8924 44.781 47.8446 43.8288 47.8446 42.5454C47.8446 41.5104 47.1822 40.5996 44.2842 39.0954C40.2132 37.1496 38.5158 35.1762 38.5158 31.8642C38.5158 28.1658 41.4138 25.0884 46.437 25.0884C48.9072 25.0884 50.6322 25.461 51.5706 25.8888C51.8052 26.0268 51.8604 26.2614 51.8604 26.4684V30.4014C51.8604 30.636 51.7224 30.774 51.4326 30.6912C50.163 29.8908 48.3 29.4078 46.437 29.4078ZM21.7626 32.8164C22.425 32.8716 22.9356 32.8716 24.081 32.8716C27.4344 32.8716 30.5946 31.6986 30.5946 27.1308C30.5946 23.4876 28.3314 21.6522 24.5088 21.6522C23.3634 21.6522 22.2732 21.7074 21.7488 21.735L21.7626 32.8164ZM16.6428 17.5812C16.6428 17.3742 17.043 17.2362 17.2776 17.2362C19.113 17.1534 21.8454 17.0982 24.6744 17.0982C32.6232 17.0982 35.7282 21.459 35.7282 27.0204C35.7282 34.3068 30.4428 37.4394 23.9568 37.4394C22.8666 37.4394 22.494 37.3842 21.7212 37.3842V48.3966C21.7212 48.6312 21.6384 48.7416 21.3762 48.7416H16.9878C16.7532 48.7416 16.6428 48.6588 16.6428 48.3966V17.5812Z" fill="#31C5F0"/>
</g>
<defs>
<radialGradient id="paint0_radial" cx="0" cy="0" r="1" gradientUnits="userSpaceOnUse" gradientTransform="translate(23.679 18.4974) scale(47.9755 46.449)">
<stop stop-color="#34364E" stop-opacity="0.98"/>
<stop offset="1" stop-color="#0C0824"/>
</radialGradient>
<clipPath id="clip0">
<rect width="69" height="69" fill="white"/>
</clipPath>
</defs>
</svg>
