<svg width="65" height="65" viewBox="0 0 65 65" fill="none" xmlns="http://www.w3.org/2000/svg">
<path d="M32.5 65C50.4493 65 65 50.4493 65 32.5C65 14.5507 50.4493 0 32.5 0C14.5507 0 0 14.5507 0 32.5C0 50.4493 14.5507 65 32.5 65Z" fill="#F2F2F2"/>
<path d="M42.2738 51.7164C35.8566 54.08 28.8129 54.08 22.3957 51.7164C21.8048 51.5036 21.332 50.8064 21.332 50.2036V48.6555C21.332 48.0527 21.8048 47.7573 22.3957 47.97C28.8129 50.3336 35.8566 50.3336 42.2738 47.97C42.8648 47.7573 43.3375 48.0527 43.3375 48.6555V50.2036C43.3257 50.8064 42.8529 51.5036 42.2738 51.7164Z" fill="#ED1C24"/>
<path d="M42.2738 49.8255C35.8566 53.1109 28.8129 53.1109 22.3957 49.8255C21.8048 49.53 21.332 48.5609 21.332 47.7218V45.5827C21.332 44.7436 21.8048 44.33 22.3957 44.6373C28.8129 47.9227 35.8566 47.9227 42.2738 44.6373C42.8648 44.3418 43.3375 44.7436 43.3375 45.5827V47.7218C43.3257 48.5609 42.8529 49.53 42.2738 49.8255Z" fill="#C1272D"/>
<path d="M32.3343 53.43C32.8369 53.43 33.2443 53.0226 33.2443 52.52C33.2443 52.0174 32.8369 51.61 32.3343 51.61C31.8317 51.61 31.4243 52.0174 31.4243 52.52C31.4243 53.0226 31.8317 53.43 32.3343 53.43Z" fill="#C1272D"/>
<path d="M32.3342 53.17C32.765 53.17 33.1142 52.8208 33.1142 52.39C33.1142 51.9592 32.765 51.61 32.3342 51.61C31.9034 51.61 31.5542 51.9592 31.5542 52.39C31.5542 52.8208 31.9034 53.17 32.3342 53.17Z" fill="#FF931E"/>
<path d="M32.5589 52.9336C32.709 52.9336 32.8307 52.8119 32.8307 52.6618C32.8307 52.5117 32.709 52.39 32.5589 52.39C32.4088 52.39 32.2871 52.5117 32.2871 52.6618C32.2871 52.8119 32.4088 52.9336 32.5589 52.9336Z" fill="#FFB81E"/>
<path d="M32.3344 57.9091C33.679 57.9091 34.769 56.8191 34.769 55.4745C34.769 54.13 33.679 53.04 32.3344 53.04C30.9899 53.04 29.8999 54.13 29.8999 55.4745C29.8999 56.8191 30.9899 57.9091 32.3344 57.9091Z" fill="#FF931E"/>
<path d="M32.3343 57.6845C33.5418 57.6845 34.5207 56.7057 34.5207 55.4982C34.5207 54.2907 33.5418 53.3118 32.3343 53.3118C31.1268 53.3118 30.1479 54.2907 30.1479 55.4982C30.1479 56.7057 31.1268 57.6845 32.3343 57.6845Z" fill="#FFB81E"/>
<path d="M32.9729 54.8009C33.1029 54.9191 33.1738 55.0845 33.1738 55.3209C33.1738 55.5573 33.1029 55.7227 32.9729 55.8409C32.831 55.9473 32.6301 56.0063 32.3465 56.0063H32.0983V56.5382H31.6729V54.6354H32.3465C32.6301 54.6354 32.8429 54.6827 32.9729 54.8009ZM32.6656 55.5454C32.7129 55.4863 32.7365 55.4036 32.7365 55.2973C32.7365 55.1909 32.701 55.1082 32.6419 55.0609C32.571 55.0136 32.4765 54.99 32.3347 54.99H32.0983V55.6282H32.3819C32.5238 55.6282 32.6183 55.6045 32.6656 55.5454Z" fill="#FF931E"/>
<path d="M52.0593 35.6673C52.6502 43.7627 43.8929 51.0309 32.4529 51.0191C21.0247 51.0309 12.2556 43.7627 12.8466 35.6673C13.4375 27.5482 22.242 20.8473 32.4766 20.8354C42.7229 20.8473 51.4566 27.5482 52.0593 35.6673Z" fill="#F7BD89"/>
<path d="M32.4172 19.7009C21.6626 19.7009 11.6763 27.2764 13.5672 38.8109C13.9454 39.8745 14.5717 42.64 17.5617 45.0864C18.4599 45.8191 20.0081 46.4336 20.7408 45.9373C22.6199 44.6609 19.2872 40.9973 23.0926 37.6173H23.0099C25.0781 36.0454 28.009 34.7927 32.3935 34.7927C36.7781 34.7927 39.709 36.0454 41.7772 37.6173H41.6944C45.4999 40.9973 42.179 44.6609 44.0463 45.9373C44.779 46.4336 46.339 45.8191 47.2254 45.0864C50.2154 42.64 50.8535 39.8745 51.2317 38.8109C53.1226 27.2645 43.1717 19.7009 32.4172 19.7009Z" fill="#FBD5A0"/>
<path d="M41.6706 38.8582C39.8624 36.6364 36.4352 34.4854 32.4524 34.4854H32.417H32.4052C28.4106 34.4854 24.9833 36.6364 23.187 38.8582C21.3197 41.1273 21.9933 42.0964 21.9933 44.2709C21.9933 52.1418 24.747 49.8491 26.6024 50.7945C28.4933 51.7164 30.4079 51.3854 32.417 51.3854H32.4524C34.4615 51.3854 36.3761 51.7164 38.267 50.7827C40.1106 49.8373 42.8761 52.1536 42.8761 44.2827C42.8642 42.12 43.5379 41.1273 41.6706 38.8582Z" fill="black"/>
<path d="M19.1454 38.6573C20.9664 38.6573 22.4427 37.181 22.4427 35.36C22.4427 33.539 20.9664 32.0627 19.1454 32.0627C17.3244 32.0627 15.8481 33.539 15.8481 35.36C15.8481 37.181 17.3244 38.6573 19.1454 38.6573Z" fill="#F7BD89"/>
<path d="M19.4408 38.1018C21.2619 38.1018 22.7381 36.6256 22.7381 34.8045C22.7381 32.9835 21.2619 31.5073 19.4408 31.5073C17.6198 31.5073 16.1436 32.9835 16.1436 34.8045C16.1436 36.6256 17.6198 38.1018 19.4408 38.1018Z" fill="black"/>
<path d="M20.2801 34.1782C20.75 34.1782 21.131 33.7972 21.131 33.3273C21.131 32.8573 20.75 32.4763 20.2801 32.4763C19.8102 32.4763 19.4292 32.8573 19.4292 33.3273C19.4292 33.7972 19.8102 34.1782 20.2801 34.1782Z" fill="white"/>
<path d="M45.6181 38.6573C47.4391 38.6573 48.9153 37.181 48.9153 35.36C48.9153 33.539 47.4391 32.0627 45.6181 32.0627C43.797 32.0627 42.3208 33.539 42.3208 35.36C42.3208 37.181 43.797 38.6573 45.6181 38.6573Z" fill="#F7BD89"/>
<path d="M45.4291 38.1018C47.2501 38.1018 48.7264 36.6256 48.7264 34.8045C48.7264 32.9835 47.2501 31.5073 45.4291 31.5073C43.6081 31.5073 42.1318 32.9835 42.1318 34.8045C42.1318 36.6256 43.6081 38.1018 45.4291 38.1018Z" fill="black"/>
<path d="M46.2684 34.1782C46.7383 34.1782 47.1193 33.7972 47.1193 33.3273C47.1193 32.8573 46.7383 32.4763 46.2684 32.4763C45.7984 32.4763 45.4175 32.8573 45.4175 33.3273C45.4175 33.7972 45.7984 34.1782 46.2684 34.1782Z" fill="white"/>
<path d="M25.4799 22.6554C25.4799 22.6554 14.3117 24.5818 13.8627 37.9245C13.8508 38.1254 13.6381 38.2554 13.4608 38.1491L13.1063 37.9364L12.8345 34.4382L13.3427 27.3L17.999 23.8609L22.1827 22.1709L25.4799 22.6554Z" fill="#F7BD89"/>
<path d="M39.3428 22.6554C39.3428 22.6554 50.511 24.5818 50.96 37.9245C50.9719 38.1254 51.1846 38.2554 51.3619 38.1491L51.7164 37.9364L51.9882 34.4382L51.48 27.3L46.8237 23.8609L42.64 22.1709L39.3428 22.6554Z" fill="#F7BD89"/>
<path d="M32.1834 46.4165V39.6854H32.6749V46.4006C33.3994 46.4855 34.3406 46.9067 35.2419 47.1782C36.1755 47.5091 37.0737 47.6391 36.7192 47.6863C35.4901 47.7336 34.1428 47.2727 32.4883 47.2963C30.8219 47.2727 29.4746 47.7336 28.2573 47.6863C27.9028 47.6273 28.801 47.4973 29.7346 47.1782C30.5891 46.9208 31.4704 46.5289 32.1834 46.4165ZM35.5137 37.4163C35.9037 38.2791 34.5564 39.6854 32.4173 39.6854C30.2783 39.6854 28.931 38.2791 29.321 37.4163C29.6992 36.53 31.0583 36.2463 32.4173 36.2345C33.7764 36.2463 35.1355 36.53 35.5137 37.4163Z" fill="#4D4D4D"/>
<path d="M25.4802 22.6555C25.4802 22.6555 12.3265 24.4755 13.4611 37.5345C13.5202 38.1964 10.8374 34.71 8.75743 33.6464C6.67743 32.5827 6.74834 29.1436 6.74834 29.1436C6.74834 29.1436 6.71288 23.1518 15.1156 21.3791C23.5065 19.6182 25.4802 22.6555 25.4802 22.6555ZM39.3429 22.6555C39.3429 22.6555 52.4965 24.4755 51.362 37.5345C51.3029 38.1964 53.9856 34.71 56.0656 33.6464C58.1456 32.5827 58.0747 29.1436 58.0747 29.1436C58.0747 29.1436 58.1102 23.1518 49.7074 21.3791C41.3165 19.6182 39.3429 22.6555 39.3429 22.6555Z" fill="black"/>
<path d="M32.429 32.0627C28.3399 32.0627 24.2036 36.0809 25.0663 35.6318C26.6618 34.7927 27.5836 33.3154 32.429 33.3154C37.2745 33.3154 38.1845 34.7927 39.7918 35.6318C40.6545 36.0809 36.5181 32.0627 32.429 32.0627Z" fill="#F7BD89"/>
<path d="M32.4288 30.3018C29.3206 30.3018 26.1888 33.3509 26.8388 33.0082C28.0561 32.37 29.6161 31.2473 32.4288 31.2473C35.2415 31.2473 36.8015 32.37 38.0188 33.0082C38.6688 33.3509 35.537 30.3018 32.4288 30.3018Z" fill="#F7BD89"/>
<path d="M32.4056 20.41C28.9783 20.41 25.5038 22.3718 26.2247 22.1473C27.572 21.7336 29.2974 21.0127 32.4056 21.0127C35.5138 21.0127 37.2392 21.7336 38.5865 22.1473C39.3074 22.3718 35.8447 20.41 32.4056 20.41Z" fill="#F7BD89"/>
<path d="M33.1975 36.9436C33.292 37.1563 32.9611 37.4991 32.4293 37.4991C31.8975 37.4991 31.5666 37.1563 31.6611 36.9436C31.7556 36.7309 32.0866 36.66 32.4293 36.6482C32.7602 36.6482 33.1029 36.7191 33.1975 36.9436Z" fill="#808080"/>
</svg>
