<svg width="88" height="65" viewBox="0 0 88 65" fill="none" xmlns="http://www.w3.org/2000/svg">
<g clip-path="url(#clip0)">
<path d="M75.2525 37.4135C72.2099 37.4293 69.5655 38.1554 67.3513 39.2289C66.5389 37.6345 65.7265 36.2137 65.5831 35.1718C65.4238 33.9563 65.2326 33.2143 65.4238 31.762C65.615 30.3096 66.4752 28.2416 66.4592 28.0838C66.4433 27.9259 66.2681 27.184 64.5158 27.1682C62.7635 27.1524 61.2502 27.4997 61.075 27.9575C60.8997 28.4153 60.5652 29.4572 60.3422 30.5306C60.0395 32.1093 56.8376 37.745 55.0057 40.697C54.4163 39.5446 53.9066 38.5343 53.795 37.7292C53.6357 36.5136 53.4446 35.7717 53.6358 34.3194C53.8269 32.867 54.6871 30.799 54.6712 30.6412C54.6553 30.4833 54.48 29.7413 52.7278 29.7255C50.9755 29.7098 49.4621 30.0571 49.2869 30.5149C49.1117 30.9727 48.9205 32.0461 48.5541 33.088C48.1878 34.1299 43.9345 43.5385 42.8194 45.9696C42.2459 47.2167 41.7521 48.2113 41.4017 48.8901C41.4017 48.8901 41.3857 48.9374 41.338 49.0164C41.0353 49.6005 40.8601 49.9162 40.8601 49.9162C40.8601 49.9162 40.8601 49.9162 40.8601 49.932C40.6211 50.3582 40.3662 50.7529 40.2388 50.7529C40.1432 50.7529 39.968 49.6163 40.2707 48.0692C40.9078 44.8014 42.4212 39.7183 42.4052 39.5446C42.4052 39.4499 42.692 38.5659 41.4176 38.1081C40.1751 37.6503 39.729 38.408 39.6175 38.408C39.506 38.408 39.4264 38.6764 39.4264 38.6764C39.4264 38.6764 40.8123 32.9617 36.782 32.9617C34.2651 32.9617 30.7924 35.6928 29.072 38.1554C27.9888 38.7395 25.679 39.9866 23.2099 41.3285C22.27 41.8494 21.2983 42.3704 20.3903 42.8597C20.3266 42.7966 20.2628 42.7177 20.1991 42.6545C15.3246 37.4924 6.30835 33.8458 6.69066 26.9156C6.83403 24.3898 7.71017 17.7596 24.0063 9.70855C37.4192 3.15724 48.0922 4.97267 49.94 8.99817C52.5844 14.7444 44.2212 25.4159 30.3623 26.963C25.0736 27.547 22.3019 25.5264 21.6009 24.7687C20.8682 23.9793 20.7567 23.932 20.4859 24.0898C20.0398 24.3266 20.3266 25.037 20.4859 25.4475C20.9 26.5209 22.6045 28.4153 25.4878 29.3467C28.0366 30.1676 34.2333 30.6254 41.7362 27.7523C50.1312 24.5319 56.6943 15.581 54.7668 8.08256C52.8393 0.473576 40.0954 -2.03644 28.0366 2.21007C20.8682 4.73587 13.0944 8.71401 7.50308 13.8919C0.86036 20.0486 -0.191005 25.4001 0.239099 27.6418C1.78429 35.598 12.8555 40.7759 17.284 44.612C17.061 44.7383 16.8539 44.8488 16.6786 44.9435C14.4644 46.0328 6.02161 50.4056 3.91888 55.0309C1.52941 60.272 4.30119 64.0291 6.13312 64.5343C11.8201 66.0971 17.6663 63.2872 20.8045 58.646C23.9426 54.0048 23.5603 47.9745 22.1107 45.2119C22.0948 45.1803 22.0788 45.1487 22.047 45.1172C22.6205 44.7857 23.2099 44.4384 23.7833 44.1068C24.9143 43.4438 26.0294 42.8282 26.9852 42.323C26.4436 43.7911 26.0454 45.5434 25.8542 48.0692C25.6153 51.037 26.8418 54.8889 28.4508 56.4044C29.1676 57.0674 30.0119 57.0832 30.5535 57.0832C32.4332 57.0832 33.2775 55.5361 34.2173 53.7049C35.3643 51.4632 36.3997 48.8585 36.3997 48.8585C36.3997 48.8585 35.1094 55.8992 38.614 55.8992C39.8883 55.8992 41.1787 54.2574 41.7521 53.4207V53.4365C41.7521 53.4365 41.784 53.3892 41.8477 53.2787C41.9751 53.0734 42.0548 52.9472 42.0548 52.9472V52.9156C42.5645 52.0316 43.7115 50.0267 45.416 46.6958C47.6143 42.4019 49.733 37.0346 49.733 37.0346C49.733 37.0346 49.9241 38.3449 50.5772 40.5234C50.9595 41.8021 51.756 43.207 52.3932 44.5646C51.8835 45.275 51.5649 45.6697 51.5649 45.6697C51.5649 45.6697 51.5649 45.6697 51.5808 45.6855C51.1666 46.2222 50.7206 46.8063 50.2268 47.3746C48.4904 49.4268 46.4196 51.779 46.1328 52.4578C45.7983 53.2629 45.8779 53.847 46.5151 54.3206C46.9771 54.6679 47.8054 54.7152 48.6497 54.6679C50.2108 54.5574 51.31 54.1785 51.8516 53.9417C52.6959 53.6418 53.6835 53.184 54.6075 52.5051C56.312 51.258 57.3474 49.4742 57.2518 47.122C57.204 45.8275 56.7739 44.5331 56.2482 43.3175C56.4075 43.0965 56.5509 42.8755 56.7102 42.6545C59.4023 38.7553 61.4891 34.4772 61.4891 34.4772C61.4891 34.4772 61.6803 35.7875 62.3334 37.966C62.652 39.071 63.3051 40.2708 63.8786 41.439C61.3458 43.4754 59.7846 45.8433 59.2271 47.3904C58.2235 50.2635 59.0041 51.558 60.4856 51.8579C61.1546 52 62.1104 51.6843 62.8113 51.3843C63.7034 51.1002 64.7547 50.6108 65.7583 49.8846C67.4628 48.6375 69.1036 46.901 69.008 44.5489C68.9602 43.4754 68.6735 42.4177 68.2752 41.3916C70.4257 40.5076 73.1975 40.0182 76.7339 40.4286C84.3165 41.3127 85.8139 46.0012 85.5272 47.9745C85.2404 49.9478 83.6475 51.0212 83.1218 51.3527C82.5961 51.6843 82.4209 51.7948 82.4687 52.0316C82.5324 52.3789 82.7873 52.3631 83.2333 52.2999C83.8546 52.1894 87.2157 50.7055 87.3591 47.0747C87.5981 42.4335 83.1377 37.3661 75.2525 37.4135ZM16.7583 56.9569C14.2414 59.6721 10.7368 60.6982 9.2235 59.83C7.59866 58.8986 8.23585 54.8889 11.3262 52.0158C13.2059 50.2635 15.6273 48.6375 17.2362 47.643C17.6026 47.422 18.1442 47.1062 18.7973 46.7116C18.9088 46.6484 18.9725 46.6169 18.9725 46.6169C19.1 46.5379 19.2274 46.459 19.3548 46.3801C20.4859 50.4845 19.4026 54.0996 16.7583 56.9569ZM35.0775 44.612C34.2014 46.7274 32.3695 52.1421 31.2544 51.8421C30.2986 51.5895 29.7092 47.4851 31.0632 43.428C31.7482 41.3916 33.1978 38.9605 34.0421 38.0133C35.4121 36.4979 36.9254 35.9927 37.2918 36.6084C37.7537 37.4135 35.6192 43.286 35.0775 44.612ZM50.1949 51.779C49.8285 51.9684 49.4781 52.0947 49.3188 52C49.2073 51.9368 49.4781 51.6843 49.4781 51.6843C49.4781 51.6843 51.3737 49.6636 52.1224 48.748C52.5525 48.2113 53.0623 47.5798 53.6039 46.8694V47.0747C53.6039 49.49 51.2463 51.116 50.1949 51.779ZM61.8555 49.1427C61.5847 48.9532 61.6325 48.3218 62.5405 46.3485C62.891 45.575 63.7193 44.2805 65.1371 43.0334C65.2964 43.5385 65.4079 44.0279 65.3919 44.4857C65.376 47.5325 63.1777 48.6691 61.8555 49.1427Z" fill="#CD6799"/>
</g>
<defs>
<clipPath id="clip0">
<rect width="87.4545" height="65" fill="white"/>
</clipPath>
</defs>
</svg>
