<svg width="73" height="71" viewBox="0 0 73 71" fill="none" xmlns="http://www.w3.org/2000/svg">
<g clip-path="url(#clip0)">
<path d="M3.04175 16.0408C3.04175 8.86114 8.86205 3.04085 16.0417 3.04085H56.9584C64.1381 3.04085 69.9584 8.86115 69.9584 16.0408V54.9591C69.9584 62.1389 64.1381 67.9591 56.9584 67.9591H16.0417C8.86205 67.9591 3.04175 62.1388 3.04175 54.9591V16.0408Z" fill="#2E001E"/>
<path d="M13 0.00743103C5.8203 0.00743103 0 5.82773 0 13.0074V57.9929C0 65.1726 5.8203 70.9929 13 70.9929H60C67.1797 70.9929 73 65.1726 73 57.9929V13.0074C73 5.82773 67.1797 0.00743103 60 0.00743103H13ZM3.04167 16.041C3.04167 8.86128 8.86197 3.041 16.0417 3.041H56.9583C64.138 3.041 69.9583 8.86129 69.9583 16.041V54.9593C69.9583 62.139 64.138 67.9593 56.9583 67.9593H16.0417C8.86197 67.9593 3.04167 62.139 3.04167 54.9593V16.041Z" fill="#FF2BC2"/>
<path d="M53.0162 29.8272C52.56 29.6149 51.982 29.5239 51.252 29.5239C47.4195 29.5239 44.8645 32.4664 44.8645 37.3505C44.8645 42.9322 47.4804 45.1771 50.887 45.1771C51.617 45.1771 52.4079 45.0861 52.9858 44.8434V29.8272H53.0162ZM39.3895 37.5932C39.3895 30.525 43.952 25.0039 51.4345 25.0039C52.0733 25.0039 52.4079 25.0039 53.0162 25.0645V17.1773C53.0162 16.9953 53.1683 16.8739 53.3204 16.8739H58.2175C58.4608 16.8739 58.5216 16.9649 58.5216 17.1166V44.8434C58.5216 45.6624 58.5216 46.6939 58.6737 47.8163C58.6737 48.0286 58.6737 48.059 58.4912 48.15C55.9362 49.3634 53.2595 49.9094 50.7045 49.9094C44.1041 49.9094 39.3895 45.8445 39.3895 37.5932ZM29.0175 32.6788L37.5341 49.151C37.6862 49.3937 37.595 49.6364 37.3516 49.6364H32.0591C31.7246 49.6364 31.5725 49.5454 31.4204 49.242C29.4737 45.2377 27.4966 41.0818 25.4587 36.7741H25.3979C23.5729 40.8391 21.5654 45.2681 19.6187 49.2724C19.4666 49.5151 19.3146 49.6061 19.0712 49.6061H14.0221C13.7179 49.6061 13.6875 49.3634 13.8396 49.1814L22.1737 33.1945L14.1133 17.2986C13.9308 17.0559 14.1133 16.8436 14.3262 16.8436H19.5579C19.8621 16.8436 20.0141 16.9043 20.1054 17.1773C22.0216 21.2119 23.9683 25.1859 25.7933 29.2509H25.8541C27.6183 25.2466 29.565 21.2119 31.4204 17.2379C31.5725 16.9953 31.6637 16.8436 31.9679 16.8436H36.865C37.1083 16.8436 37.1995 17.0256 37.0475 17.2986L29.0175 32.6788Z" fill="white"/>
</g>
<defs>
<clipPath id="clip0">
<rect width="73" height="71" fill="white"/>
</clipPath>
</defs>
</svg>
